<?xml version="1.0" encoding="UTF-8" standalone="no"?>
<!DOCTYPE svg PUBLIC "-//W3C//DTD SVG 1.1//EN"
 "http://www.w3.org/Graphics/SVG/1.1/DTD/svg11.dtd">
<!-- Generated by graphviz version 2.40.1 (20161225.0304)
 -->
<!-- Title: %3 Pages: 1 -->
<svg width="4833pt" height="420pt"
 viewBox="0.00 0.00 4833.13 420.19" xmlns="http://www.w3.org/2000/svg" xmlns:xlink="http://www.w3.org/1999/xlink">
<g id="graph0" class="graph" transform="scale(1 1) rotate(0) translate(4 416.1909)">
<title>%3</title>
<polygon fill="#ffffff" stroke="transparent" points="-4,4 -4,-416.1909 4829.1334,-416.1909 4829.1334,4 -4,4"/>
<g id="clust1" class="cluster">
<title>cluster1</title>
<polygon fill="#d3d3d3" stroke="#d3d3d3" points="8,-172.9949 8,-404.1909 3269,-404.1909 3269,-172.9949 8,-172.9949"/>
</g>
<!-- Predseda vlady SR -->
<g id="node1" class="node">
<title>Predseda vlady SR</title>
<ellipse fill="#ff0000" stroke="#ff0000" cx="1278" cy="-378.1909" rx="76.833" ry="18"/>
<text text-anchor="middle" x="1278" y="-373.9909" font-family="Times,serif" font-size="14.00" fill="#000000">Predseda vlady SR</text>
</g>
<!-- MinisterVnutra -->
<g id="node2" class="node">
<title>MinisterVnutra</title>
<ellipse fill="#ff0000" stroke="#ff0000" cx="81" cy="-198.9949" rx="64.7632" ry="18"/>
<text text-anchor="middle" x="81" y="-194.7949" font-family="Times,serif" font-size="14.00" fill="#000000">MinisterVnutra</text>
</g>
<!-- Predseda vlady SR&#45;&gt;MinisterVnutra -->
<g id="edge1" class="edge">
<title>Predseda vlady SR&#45;&gt;MinisterVnutra</title>
<path fill="none" stroke="#000000" d="M1201.0414,-376.9006C1057.0256,-373.299 737.5368,-359.6881 474,-308.3919 349.2535,-284.1106 206.2959,-240.1191 131.9493,-215.9793"/>
<polygon fill="#000000" stroke="#000000" points="132.9504,-212.6244 122.358,-212.8515 130.7801,-219.2795 132.9504,-212.6244"/>
</g>
<!-- Minister vnutra -->
<g id="node3" class="node">
<title>Minister vnutra</title>
<ellipse fill="#ff0000" stroke="#ff0000" cx="229" cy="-198.9949" rx="64.7554" ry="18"/>
<text text-anchor="middle" x="229" y="-194.7949" font-family="Times,serif" font-size="14.00" fill="#000000">Minister vnutra</text>
</g>
<!-- Predseda vlady SR&#45;&gt;Minister vnutra -->
<g id="edge2" class="edge">
<title>Predseda vlady SR&#45;&gt;Minister vnutra</title>
<path fill="none" stroke="#000000" d="M1206.5676,-371.4873C1130.8947,-364.274 1007.9511,-352.2361 902,-340.3919 786.2933,-327.4572 756.3229,-330.4291 642,-308.3919 488.9768,-278.8948 453.606,-258.8441 303,-218.7939 297.4012,-217.3051 291.565,-215.7496 285.7344,-214.1933"/>
<polygon fill="#000000" stroke="#000000" points="286.5347,-210.7844 275.9701,-211.585 284.7281,-217.5473 286.5347,-210.7844"/>
</g>
<!-- Minister spravodlivosti -->
<g id="node4" class="node">
<title>Minister spravodlivosti</title>
<ellipse fill="#ff0000" stroke="#ff0000" cx="404" cy="-198.9949" rx="92.2938" ry="18"/>
<text text-anchor="middle" x="404" y="-194.7949" font-family="Times,serif" font-size="14.00" fill="#000000">Minister spravodlivosti</text>
</g>
<!-- Predseda vlady SR&#45;&gt;Minister spravodlivosti -->
<g id="edge3" class="edge">
<title>Predseda vlady SR&#45;&gt;Minister spravodlivosti</title>
<path fill="none" stroke="#000000" d="M1208.3611,-370.5197C1115.8741,-359.7338 947.687,-338.0374 806,-308.3919 682.4349,-282.5382 540.4996,-241.0874 462.6786,-217.3244"/>
<polygon fill="#000000" stroke="#000000" points="463.6383,-213.9579 453.0517,-214.3751 461.5878,-220.6509 463.6383,-213.9579"/>
</g>
<!-- Minister financii -->
<g id="node5" class="node">
<title>Minister financii</title>
<ellipse fill="#ff0000" stroke="#ff0000" cx="583" cy="-198.9949" rx="68.6233" ry="18"/>
<text text-anchor="middle" x="583" y="-194.7949" font-family="Times,serif" font-size="14.00" fill="#000000">Minister financii</text>
</g>
<!-- Predseda vlady SR&#45;&gt;Minister financii -->
<g id="edge4" class="edge">
<title>Predseda vlady SR&#45;&gt;Minister financii</title>
<path fill="none" stroke="#000000" d="M1218.002,-366.8556C1152.1664,-354.0758 1043.532,-331.9823 951,-308.3919 837.8082,-279.5345 707.1262,-238.917 635.9515,-216.1661"/>
<polygon fill="#000000" stroke="#000000" points="636.9025,-212.7955 626.3114,-213.0774 634.7666,-219.4618 636.9025,-212.7955"/>
</g>
<!-- Minister hospodarstva -->
<g id="node6" class="node">
<title>Minister hospodarstva</title>
<ellipse fill="#ff0000" stroke="#ff0000" cx="759" cy="-198.9949" rx="88.902" ry="18"/>
<text text-anchor="middle" x="759" y="-194.7949" font-family="Times,serif" font-size="14.00" fill="#000000">Minister hospodarstva</text>
</g>
<!-- Predseda vlady SR&#45;&gt;Minister hospodarstva -->
<g id="edge5" class="edge">
<title>Predseda vlady SR&#45;&gt;Minister hospodarstva</title>
<path fill="none" stroke="#000000" d="M1232.8538,-363.4655C1190.2694,-349.5094 1124.6892,-327.8459 1068,-308.3919 977.947,-277.4884 873.6277,-240.2553 812.1486,-218.1638"/>
<polygon fill="#000000" stroke="#000000" points="813.2526,-214.8415 802.6581,-214.7516 810.8842,-221.4287 813.2526,-214.8415"/>
</g>
<!-- Minister obrany -->
<g id="node7" class="node">
<title>Minister obrany</title>
<ellipse fill="#ff0000" stroke="#ff0000" cx="933" cy="-198.9949" rx="66.685" ry="18"/>
<text text-anchor="middle" x="933" y="-194.7949" font-family="Times,serif" font-size="14.00" fill="#000000">Minister obrany</text>
</g>
<!-- Predseda vlady SR&#45;&gt;Minister obrany -->
<g id="edge6" class="edge">
<title>Predseda vlady SR&#45;&gt;Minister obrany</title>
<path fill="none" stroke="#000000" d="M1246.1616,-361.6538C1183.0715,-328.8842 1042.3077,-255.7703 973.0505,-219.7975"/>
<polygon fill="#000000" stroke="#000000" points="974.2557,-216.4796 963.7681,-214.9762 971.0291,-222.6916 974.2557,-216.4796"/>
</g>
<!-- Minister dopravy a vystavby -->
<g id="node8" class="node">
<title>Minister dopravy a vystavby</title>
<ellipse fill="#ff0000" stroke="#ff0000" cx="1129" cy="-198.9949" rx="111.5866" ry="18"/>
<text text-anchor="middle" x="1129" y="-194.7949" font-family="Times,serif" font-size="14.00" fill="#000000">Minister dopravy a vystavby</text>
</g>
<!-- Predseda vlady SR&#45;&gt;Minister dopravy a vystavby -->
<g id="edge7" class="edge">
<title>Predseda vlady SR&#45;&gt;Minister dopravy a vystavby</title>
<path fill="none" stroke="#000000" d="M1263.1686,-360.3538C1236.6849,-328.503 1181.1689,-261.7362 1150.5011,-224.8534"/>
<polygon fill="#000000" stroke="#000000" points="1153.0773,-222.4773 1143.9926,-217.0259 1147.6949,-226.9528 1153.0773,-222.4773"/>
</g>
<!-- Minister podohospodarstva a rozvoja vidieka -->
<g id="node9" class="node">
<title>Minister podohospodarstva a rozvoja vidieka</title>
<ellipse fill="#ff0000" stroke="#ff0000" cx="1428" cy="-198.9949" rx="169.9856" ry="18"/>
<text text-anchor="middle" x="1428" y="-194.7949" font-family="Times,serif" font-size="14.00" fill="#000000">Minister podohospodarstva a rozvoja vidieka</text>
</g>
<!-- Predseda vlady SR&#45;&gt;Minister podohospodarstva a rozvoja vidieka -->
<g id="edge8" class="edge">
<title>Predseda vlady SR&#45;&gt;Minister podohospodarstva a rozvoja vidieka</title>
<path fill="none" stroke="#000000" d="M1292.931,-360.3538C1319.5924,-328.503 1375.481,-261.7362 1406.3546,-224.8534"/>
<polygon fill="#000000" stroke="#000000" points="1409.1719,-226.9406 1412.9068,-217.0259 1403.8042,-222.4474 1409.1719,-226.9406"/>
</g>
<!-- Minister zahranicnych veci a europskych zalezitosti -->
<g id="node10" class="node">
<title>Minister zahranicnych veci a europskych zalezitosti</title>
<ellipse fill="#ff0000" stroke="#ff0000" cx="1809" cy="-198.9949" rx="193.5707" ry="18"/>
<text text-anchor="middle" x="1809" y="-194.7949" font-family="Times,serif" font-size="14.00" fill="#000000">Minister zahranicnych veci a europskych zalezitosti</text>
</g>
<!-- Predseda vlady SR&#45;&gt;Minister zahranicnych veci a europskych zalezitosti -->
<g id="edge9" class="edge">
<title>Predseda vlady SR&#45;&gt;Minister zahranicnych veci a europskych zalezitosti</title>
<path fill="none" stroke="#000000" d="M1321.9057,-363.3741C1416.4556,-331.4665 1639.5083,-256.1931 1747.8352,-219.6362"/>
<polygon fill="#000000" stroke="#000000" points="1748.9674,-222.9481 1757.3232,-216.4343 1746.7291,-216.3156 1748.9674,-222.9481"/>
</g>
<!-- Minister prace, socialnych veci a rodiny -->
<g id="node11" class="node">
<title>Minister prace, socialnych veci a rodiny</title>
<ellipse fill="#ff0000" stroke="#ff0000" cx="2173" cy="-198.9949" rx="152.0855" ry="18"/>
<text text-anchor="middle" x="2173" y="-194.7949" font-family="Times,serif" font-size="14.00" fill="#000000">Minister prace, socialnych veci a rodiny</text>
</g>
<!-- Predseda vlady SR&#45;&gt;Minister prace, socialnych veci a rodiny -->
<g id="edge10" class="edge">
<title>Predseda vlady SR&#45;&gt;Minister prace, socialnych veci a rodiny</title>
<path fill="none" stroke="#000000" d="M1336.7234,-366.4334C1490.1579,-335.7129 1903.7087,-252.9122 2085.3806,-216.538"/>
<polygon fill="#000000" stroke="#000000" points="2086.3141,-219.9206 2095.4324,-214.5255 2084.9398,-213.0569 2086.3141,-219.9206"/>
</g>
<!-- Minister zivotneho prostredia -->
<g id="node12" class="node">
<title>Minister zivotneho prostredia</title>
<ellipse fill="#ff0000" stroke="#ff0000" cx="2458" cy="-198.9949" rx="114.9605" ry="18"/>
<text text-anchor="middle" x="2458" y="-194.7949" font-family="Times,serif" font-size="14.00" fill="#000000">Minister zivotneho prostredia</text>
</g>
<!-- Predseda vlady SR&#45;&gt;Minister zivotneho prostredia -->
<g id="edge11" class="edge">
<title>Predseda vlady SR&#45;&gt;Minister zivotneho prostredia</title>
<path fill="none" stroke="#000000" d="M1343.2217,-368.5436C1508.8415,-344.0028 1959.0988,-277.0175 2334,-218.7939 2344.9133,-217.0991 2356.3633,-215.2996 2367.7102,-213.5034"/>
<polygon fill="#000000" stroke="#000000" points="2368.3109,-216.952 2377.639,-211.9285 2367.2141,-210.0384 2368.3109,-216.952"/>
</g>
<!-- Minister skolstva, vedy, vyskumu a sportu -->
<g id="node13" class="node">
<title>Minister skolstva, vedy, vyskumu a sportu</title>
<ellipse fill="#ff0000" stroke="#ff0000" cx="2750" cy="-198.9949" rx="159.7334" ry="18"/>
<text text-anchor="middle" x="2750" y="-194.7949" font-family="Times,serif" font-size="14.00" fill="#000000">Minister skolstva, vedy, vyskumu a sportu</text>
</g>
<!-- Predseda vlady SR&#45;&gt;Minister skolstva, vedy, vyskumu a sportu -->
<g id="edge12" class="edge">
<title>Predseda vlady SR&#45;&gt;Minister skolstva, vedy, vyskumu a sportu</title>
<path fill="none" stroke="#000000" d="M1347.4405,-370.4229C1459.9538,-357.7819 1689.0704,-331.813 1883,-308.3919 2152.4284,-275.8528 2468.6441,-235.3739 2634.7134,-213.9383"/>
<polygon fill="#000000" stroke="#000000" points="2635.4758,-217.369 2644.9453,-212.6172 2634.5794,-210.4267 2635.4758,-217.369"/>
</g>
<!-- Minister kultury -->
<g id="node14" class="node">
<title>Minister kultury</title>
<ellipse fill="#ff0000" stroke="#ff0000" cx="2995" cy="-198.9949" rx="67.6627" ry="18"/>
<text text-anchor="middle" x="2995" y="-194.7949" font-family="Times,serif" font-size="14.00" fill="#000000">Minister kultury</text>
</g>
<!-- Predseda vlady SR&#45;&gt;Minister kultury -->
<g id="edge13" class="edge">
<title>Predseda vlady SR&#45;&gt;Minister kultury</title>
<path fill="none" stroke="#000000" d="M1354.2591,-375.2203C1589.2057,-365.1228 2322.1849,-326.5452 2919,-218.7939 2925.34,-217.6493 2931.9286,-216.2527 2938.4582,-214.7362"/>
<polygon fill="#000000" stroke="#000000" points="2939.7311,-218.0292 2948.6261,-212.2733 2938.0831,-211.2259 2939.7311,-218.0292"/>
</g>
<!-- Minister zdravotnictva -->
<g id="node15" class="node">
<title>Minister zdravotnictva</title>
<ellipse fill="#ff0000" stroke="#ff0000" cx="3171" cy="-198.9949" rx="90.3211" ry="18"/>
<text text-anchor="middle" x="3171" y="-194.7949" font-family="Times,serif" font-size="14.00" fill="#000000">Minister zdravotnictva</text>
</g>
<!-- Predseda vlady SR&#45;&gt;Minister zdravotnictva -->
<g id="edge14" class="edge">
<title>Predseda vlady SR&#45;&gt;Minister zdravotnictva</title>
<path fill="none" stroke="#000000" d="M1354.6906,-376.1209C1541.0526,-370.539 2032.3709,-352.512 2440,-308.3919 2722.0503,-277.864 2792.3493,-266.5412 3072,-218.7939 3080.5991,-217.3257 3089.5965,-215.6801 3098.5122,-213.9815"/>
<polygon fill="#000000" stroke="#000000" points="3099.364,-217.3817 3108.5182,-212.0478 3098.0357,-210.5089 3099.364,-217.3817"/>
</g>
<!-- Vlada -->
<g id="node16" class="node">
<title>Vlada</title>
<ellipse fill="none" stroke="#000000" cx="4251" cy="-198.9949" rx="574.2669" ry="19.6"/>
<text text-anchor="middle" x="4251" y="-192.9949" font-family="Times,serif" font-size="20.00" fill="#000000">&lt;f0&gt;Minister skolstva, vedy, vyskumu a sportu |&lt;f1&gt; Minister kultury |&lt;f2&gt; Minister zdravotnictva</text>
</g>
<!-- NRSR -->
<g id="node20" class="node">
<title>NRSR</title>
<ellipse fill="none" stroke="#000000" cx="3903" cy="-109.397" rx="48.0158" ry="19.6"/>
<text text-anchor="middle" x="3903" y="-103.397" font-family="Times,serif" font-size="20.00" fill="#000000">NRSR</text>
</g>
<!-- Vlada&#45;&gt;NRSR -->
<g id="edge20" class="edge">
<title>Vlada&#45;&gt;NRSR</title>
<g id="a_edge20"><a xlink:href="https://www.slov-lex.sk/pravne-predpisy/SK/ZZ/1992/460/#ustavnyclanok-114.odsek-1" xlink:title="sa zodpoveda">
<path fill="none" stroke="#000000" d="M4226.2139,-179.1889C4209.6054,-166.3099 4189.0107,-151.1929 4179,-147.196 4140.496,-131.8225 4029.7724,-120.087 3960.8334,-114.0121"/>
<polygon fill="#000000" stroke="#000000" points="3960.8273,-110.4985 3950.5623,-113.1216 3960.2226,-117.4724 3960.8273,-110.4985"/>
</a>
</g>
<g id="a_edge20&#45;label"><a xlink:href="https://www.slov-lex.sk/pravne-predpisy/SK/ZZ/1992/460/#ustavnyclanok-114.odsek-1" xlink:title="sa zodpoveda">
<text text-anchor="middle" x="4237.9019" y="-149.996" font-family="Times,serif" font-size="14.00" fill="#000000">sa zodpoveda</text>
</a>
</g>
</g>
<!-- Vlada&#45;&gt;NRSR -->
<g id="edge21" class="edge">
<title>Vlada&#45;&gt;NRSR</title>
<g id="a_edge21"><a xlink:href="https://www.slov-lex.sk/pravne-predpisy/SK/ZZ/1992/460/#ustavnyclanok-114.odsek-2" xlink:title="moze poziadat o vyslovenie dovery">
<path fill="none" stroke="#000000" d="M4272.0651,-179.0704C4280.4601,-168.7671 4286.3663,-156.4479 4278,-147.196 4257.2037,-124.1981 4061.6308,-114.5343 3961.4907,-111.0668"/>
<polygon fill="#000000" stroke="#000000" points="3961.3416,-107.5599 3951.2295,-110.7216 3961.1062,-114.556 3961.3416,-107.5599"/>
</a>
</g>
<g id="a_edge21&#45;label"><a xlink:href="https://www.slov-lex.sk/pravne-predpisy/SK/ZZ/1992/460/#ustavnyclanok-114.odsek-2" xlink:title="moze poziadat o vyslovenie dovery">
<text text-anchor="middle" x="4381.1348" y="-149.996" font-family="Times,serif" font-size="14.00" fill="#000000">moze poziadat o vyslovenie dovery</text>
</a>
</g>
</g>
<!-- Vlada&#45;&gt;NRSR -->
<g id="edge22" class="edge">
<title>Vlada&#45;&gt;NRSR</title>
<g id="a_edge22"><a xlink:href="https://www.slov-lex.sk/pravne-predpisy/SK/ZZ/1992/460/#ustavnyclanok-114.odsek-2" xlink:title="moze spojit hlasovanie s hlasovanim o dovere">
<path fill="none" stroke="#000000" d="M3931.0168,-182.5251C3841.7354,-176.3592 3766.7984,-168.955 3759.6133,-161.196 3730.9517,-130.245 3793.5509,-117.7554 3844.8891,-112.7365"/>
<polygon fill="#000000" stroke="#000000" points="3845.33,-116.2111 3854.9762,-111.8291 3844.7028,-109.2393 3845.33,-116.2111"/>
</a>
</g>
<g id="a_edge22&#45;label"><a xlink:href="https://www.slov-lex.sk/pravne-predpisy/SK/ZZ/1992/460/#ustavnyclanok-114.odsek-2" xlink:title="moze spojit hlasovanie s hlasovanim o dovere">
<text text-anchor="middle" x="3887.6934" y="-149.996" font-family="Times,serif" font-size="14.00" fill="#000000">moze spojit hlasovanie s hlasovanim o dovere</text>
</a>
</g>
</g>
<!-- Prezident -->
<g id="node17" class="node">
<title>Prezident</title>
<ellipse fill="none" stroke="#000000" cx="3467" cy="-288.5929" rx="64.94" ry="19.6"/>
<text text-anchor="middle" x="3467" y="-282.5929" font-family="Times,serif" font-size="20.00" fill="#000000">Prezident</text>
</g>
<!-- Prezident&#45;&gt;Vlada -->
<g id="edge15" class="edge">
<title>Prezident&#45;&gt;Vlada</title>
<path fill="none" stroke="#000000" d="M3527.8668,-281.6369C3643.8901,-268.3774 3900.6423,-239.0349 4074.8141,-219.13"/>
<polygon fill="#000000" stroke="#000000" points="4075.3246,-222.5946 4084.8625,-217.9817 4074.5297,-215.6398 4075.3246,-222.5946"/>
<text text-anchor="middle" x="3940.7656" y="-239.5939" font-family="Times,serif" font-size="14.00" fill="#000000">vymenovava</text>
</g>
<!-- Zakony -->
<g id="node18" class="node">
<title>Zakony</title>
<ellipse fill="none" stroke="#000000" cx="3394" cy="-198.9949" rx="54.527" ry="19.6"/>
<text text-anchor="middle" x="3394" y="-192.9949" font-family="Times,serif" font-size="20.00" fill="#000000">Zakony</text>
</g>
<!-- Prezident&#45;&gt;Zakony -->
<g id="edge16" class="edge">
<title>Prezident&#45;&gt;Zakony</title>
<path fill="none" stroke="#000000" d="M3438.0605,-270.8809C3430.36,-265.1735 3422.5328,-258.3468 3416.5586,-250.7939 3411.296,-244.1407 3407.0145,-236.071 3403.6519,-228.3012"/>
<polygon fill="#000000" stroke="#000000" points="3406.808,-226.7643 3399.8793,-218.7491 3400.2974,-229.3357 3406.808,-226.7643"/>
<text text-anchor="middle" x="3443.2207" y="-239.5939" font-family="Times,serif" font-size="14.00" fill="#000000">podpisuje</text>
</g>
<!-- Prezident&#45;&gt;NRSR -->
<g id="edge25" class="edge">
<title>Prezident&#45;&gt;NRSR</title>
<path fill="none" stroke="#000000" d="M3469.1268,-268.3925C3472.6739,-238.7849 3480.8033,-185.731 3494.5996,-172.9949 3544.5048,-126.9252 3743.916,-114.2135 3844.4391,-110.7169"/>
<polygon fill="#000000" stroke="#000000" points="3844.849,-114.2055 3854.7288,-110.3793 3844.6194,-107.2092 3844.849,-114.2055"/>
<text text-anchor="middle" x="3580.7002" y="-194.7949" font-family="Times,serif" font-size="14.00" fill="#000000">Zvolava ustanovujucu schodzu</text>
</g>
<!-- Narod -->
<g id="node19" class="node">
<title>Narod</title>
<ellipse fill="none" stroke="#000000" cx="3327" cy="-378.1909" rx="46.811" ry="19.6"/>
<text text-anchor="middle" x="3327" y="-372.1909" font-family="Times,serif" font-size="20.00" fill="#000000">Narod</text>
</g>
<!-- Narod&#45;&gt;Prezident -->
<g id="edge17" class="edge">
<title>Narod&#45;&gt;Prezident</title>
<path fill="none" stroke="#000000" d="M3353.0048,-361.5482C3374.6964,-347.6659 3405.8666,-327.7175 3430.1322,-312.1878"/>
<polygon fill="#000000" stroke="#000000" points="3432.1934,-315.0241 3438.7295,-306.6857 3428.42,-309.1282 3432.1934,-315.0241"/>
<text text-anchor="middle" x="3415.8896" y="-329.1919" font-family="Times,serif" font-size="14.00" fill="#000000">voli</text>
</g>
<!-- Narod&#45;&gt;NRSR -->
<g id="edge18" class="edge">
<title>Narod&#45;&gt;NRSR</title>
<path fill="none" stroke="#000000" d="M3319.9133,-358.6049C3306.727,-318.3166 3283.7362,-225.5397 3330,-172.9949 3363.6348,-134.7938 3705.577,-117.1476 3844.6486,-111.5096"/>
<polygon fill="#000000" stroke="#000000" points="3844.8477,-115.0046 3854.7003,-111.1088 3844.5687,-108.0101 3844.8477,-115.0046"/>
<text text-anchor="middle" x="3313.8896" y="-239.5939" font-family="Times,serif" font-size="14.00" fill="#000000">voli</text>
</g>
<!-- NRSR&#45;&gt;Vlada -->
<g id="edge19" class="edge">
<title>NRSR&#45;&gt;Vlada</title>
<g id="a_edge19"><a xlink:href="https://www.slov-lex.sk/pravne-predpisy/SK/ZZ/1992/460/#ustavnyclanok-114.odsek-1" xlink:title="moze vyslovit nedoveru">
<path fill="none" stroke="#000000" d="M3943.9956,-120.0367C3967.0928,-126.6431 3996.1961,-136.0038 4021,-147.196 4032.073,-152.1924 4033.1036,-156.9235 4044.4756,-161.196 4061.6128,-167.6344 4079.9748,-173.0014 4098.4214,-177.4695"/>
<polygon fill="#000000" stroke="#000000" points="4097.8348,-180.9267 4108.3688,-179.7925 4099.4268,-174.1101 4097.8348,-180.9267"/>
</a>
</g>
<g id="a_edge19&#45;label"><a xlink:href="https://www.slov-lex.sk/pravne-predpisy/SK/ZZ/1992/460/#ustavnyclanok-114.odsek-1" xlink:title="moze vyslovit nedoveru">
<text text-anchor="middle" x="4111.2622" y="-149.996" font-family="Times,serif" font-size="14.00" fill="#000000">moze vyslovit nedoveru</text>
</a>
</g>
</g>
<!-- Najvyssi kontrolny urad -->
<g id="node22" class="node">
<title>Najvyssi kontrolny urad</title>
<ellipse fill="none" stroke="#000000" cx="3903" cy="-19.799" rx="148.0098" ry="19.6"/>
<text text-anchor="middle" x="3903" y="-13.799" font-family="Times,serif" font-size="20.00" fill="#000000">Najvyssi kontrolny urad</text>
</g>
<!-- NRSR&#45;&gt;Najvyssi kontrolny urad -->
<g id="edge24" class="edge">
<title>NRSR&#45;&gt;Najvyssi kontrolny urad</title>
<path fill="none" stroke="#000000" d="M3903,-89.5123C3903,-77.7963 3903,-62.747 3903,-49.6314"/>
<polygon fill="#000000" stroke="#000000" points="3906.5001,-49.6281 3903,-39.6281 3899.5001,-49.6281 3906.5001,-49.6281"/>
<text text-anchor="middle" x="3946.1553" y="-60.398" font-family="Times,serif" font-size="14.00" fill="#000000">voli a odvolava</text>
</g>
<!-- Clen vlady -->
<g id="node21" class="node">
<title>Clen vlady</title>
<ellipse fill="none" stroke="#000000" cx="3467" cy="-378.1909" rx="72.9568" ry="19.6"/>
<text text-anchor="middle" x="3467" y="-372.1909" font-family="Times,serif" font-size="20.00" fill="#000000">Clen vlady</text>
</g>
<!-- Clen vlady&#45;&gt;Prezident -->
<g id="edge23" class="edge">
<title>Clen vlady&#45;&gt;Prezident</title>
<path fill="none" stroke="#000000" d="M3467,-358.3062C3467,-346.5903 3467,-331.541 3467,-318.4253"/>
<polygon fill="#000000" stroke="#000000" points="3470.5001,-318.422 3467,-308.422 3463.5001,-318.4221 3470.5001,-318.422"/>
<text text-anchor="middle" x="3511.1294" y="-329.1919" font-family="Times,serif" font-size="14.00" fill="#000000">podava demisiu</text>
</g>
</g>
</svg>
